<?xml version="1.0" encoding="UTF-8"?>
<svg width="32px" height="26px" viewBox="0 0 32 26" version="1.1" xmlns="http://www.w3.org/2000/svg" xmlns:xlink="http://www.w3.org/1999/xlink">
    <!-- Generator: sketchtool 64 (101010) - https://sketch.com -->
    <title>41732CCA-704D-45C1-B51E-DC756BDBB495@3x</title>
    <desc>Created with sketchtool.</desc>
    <g id="Page-1" stroke="none" stroke-width="1" fill="none" fill-rule="evenodd">
        <g id="Rubric---Dashboard" transform="translate(-798.000000, -224.000000)" fill="#49C242" fill-rule="nonzero">
            <g id="Provider-icons" transform="translate(546.000000, 145.000000)">
                <g id="ambulance-green" transform="translate(252.000000, 79.000000)">
                    <g id="ambulance" transform="translate(0.400000, 0.800000)">
                        <path d="M13.3,9.1 L11.9,9.1 L11.9,7.7 C11.9,6.92680135 11.2731986,6.3 10.5,6.3 C9.72680135,6.3 9.1,6.92680135 9.1,7.7 L9.1,9.1 L7.7,9.1 C6.92680135,9.1 6.3,9.72680135 6.3,10.5 C6.3,11.2731986 6.92680135,11.9 7.7,11.9 L9.1,11.9 L9.1,13.3 C9.1,14.0731986 9.72680135,14.7 10.5,14.7 C11.2731986,14.7 11.9,14.0731986 11.9,13.3 L11.9,11.9 L13.3,11.9 C14.0731986,11.9 14.7,11.2731986 14.7,10.5 C14.7,9.72680135 14.0731986,9.1 13.3,9.1 Z M30.702,12.11 L30.618,11.956 C30.5938859,11.8867293 30.5609481,11.8208538 30.52,11.76 L27.16,7.28 C26.3668116,6.22241546 25.1219807,5.6 23.8,5.6 L21,5.6 L21,4.2 C21,1.88040405 19.1195959,0 16.8,0 L4.2,0 C1.88040405,0 -3.10862447e-16,1.88040405 -3.10862447e-16,4.2 L-3.10862447e-16,19.6 C-3.10862447e-16,20.3731986 0.62680135,21 1.4,21 L2.8,21 C2.8,23.3195959 4.68040405,25.2 7,25.2 C9.31959595,25.2 11.2,23.3195959 11.2,21 L19.6,21 C19.6,23.3195959 21.4804041,25.2 23.8,25.2 C26.1195959,25.2 28,23.3195959 28,21 L29.4,21 C30.1731986,21 30.8,20.3731986 30.8,19.6 L30.8,12.6 C30.7969829,12.4321113 30.7637876,12.2661346 30.702,12.11 Z M7,22.4 C6.22680135,22.4 5.6,21.7731986 5.6,21 C5.6,20.2268014 6.22680135,19.6 7,19.6 C7.77319865,19.6 8.4,20.2268014 8.4,21 C8.4,21.7731986 7.77319865,22.4 7,22.4 Z M18.2,18.2 L10.108,18.2 C9.31199722,17.3242402 8.18345919,16.8249488 7,16.8249488 C5.81654081,16.8249488 4.68800278,17.3242402 3.892,18.2 L2.8,18.2 L2.8,4.2 C2.8,3.42680135 3.42680135,2.8 4.2,2.8 L16.8,2.8 C17.5731986,2.8 18.2,3.42680135 18.2,4.2 L18.2,18.2 Z M21,8.4 L23.8,8.4 C24.2406602,8.4 24.6556039,8.60747182 24.92,8.96 L26.6,11.2 L21,11.2 L21,8.4 Z M23.8,22.4 C23.0268014,22.4 22.4,21.7731986 22.4,21 C22.4,20.2268014 23.0268014,19.6 23.8,19.6 C24.5731986,19.6 25.2,20.2268014 25.2,21 C25.2,21.7731986 24.5731986,22.4 23.8,22.4 Z M28,18.2 L26.908,18.2 C25.3573369,16.4924717 22.7198107,16.3549703 21,17.892 L21,14 L28,14 L28,18.2 Z" id="Shape"></path>
                    </g>
                </g>
            </g>
        </g>
    </g>
</svg>