<?xml version="1.0" encoding="UTF-8"?>
<svg width="32px" height="32px" viewBox="0 0 32 32" version="1.1" xmlns="http://www.w3.org/2000/svg" xmlns:xlink="http://www.w3.org/1999/xlink">
    <!-- Generator: sketchtool 64 (101010) - https://sketch.com -->
    <title>902C8877-0F78-4485-BC32-4BFEA7013A88@3x</title>
    <desc>Created with sketchtool.</desc>
    <g id="Page-1" stroke="none" stroke-width="1" fill="none" fill-rule="evenodd">
        <g id="Rubric---Dashboard" transform="translate(-1198.000000, -705.000000)" fill="#E05454" fill-rule="nonzero">
            <g id="Provider-icons" transform="translate(472.000000, 211.000000)">
                <g id="medical-red" transform="translate(726.000000, 494.000000)">
                    <path d="M27.2,-7.10542736e-16 L4.8,-7.10542736e-16 C2.1490332,-7.10542736e-16 -7.10542736e-16,2.1490332 -7.10542736e-16,4.8 L-7.10542736e-16,27.2 C-7.10542736e-16,29.8509668 2.1490332,32 4.8,32 L27.2,32 C29.8509668,32 32,29.8509668 32,27.2 L32,4.8 C32,2.1490332 29.8509668,-7.10542736e-16 27.2,-7.10542736e-16 Z M28.8,27.2 C28.8,28.0836556 28.0836556,28.8 27.2,28.8 L4.8,28.8 C3.9163444,28.8 3.2,28.0836556 3.2,27.2 L3.2,4.8 C3.2,3.9163444 3.9163444,3.2 4.8,3.2 L27.2,3.2 C28.0836556,3.2 28.8,3.9163444 28.8,4.8 L28.8,27.2 Z M24,11.2 L20.8,11.2 L20.8,8 C20.8,7.1163444 20.0836556,6.4 19.2,6.4 L12.8,6.4 C11.9163444,6.4 11.2,7.1163444 11.2,8 L11.2,11.2 L8,11.2 C7.1163444,11.2 6.4,11.9163444 6.4,12.8 L6.4,19.2 C6.4,20.0836556 7.1163444,20.8 8,20.8 L11.2,20.8 L11.2,24 C11.2,24.8836556 11.9163444,25.6 12.8,25.6 L19.2,25.6 C20.0836556,25.6 20.8,24.8836556 20.8,24 L20.8,20.8 L24,20.8 C24.8836556,20.8 25.6,20.0836556 25.6,19.2 L25.6,12.8 C25.6,11.9163444 24.8836556,11.2 24,11.2 Z M22.4,17.6 L19.2,17.6 C18.3163444,17.6 17.6,18.3163444 17.6,19.2 L17.6,22.4 L14.4,22.4 L14.4,19.2 C14.4,18.3163444 13.6836556,17.6 12.8,17.6 L9.6,17.6 L9.6,14.4 L12.8,14.4 C13.6836556,14.4 14.4,13.6836556 14.4,12.8 L14.4,9.6 L17.6,9.6 L17.6,12.8 C17.6,13.6836556 18.3163444,14.4 19.2,14.4 L22.4,14.4 L22.4,17.6 Z" id="Shape"></path>
                </g>
            </g>
        </g>
    </g>
</svg>