<?xml version="1.0" encoding="UTF-8"?>
<svg width="73px" height="73px" viewBox="0 0 73 73" version="1.1" xmlns="http://www.w3.org/2000/svg" xmlns:xlink="http://www.w3.org/1999/xlink">
    <!-- Generator: sketchtool 64 (101010) - https://sketch.com -->
    <title>4C19885A-6892-4F28-88FC-86DDD0915E76@3x</title>
    <desc>Created with sketchtool.</desc>
    <defs>
        <linearGradient x1="157.492363%" y1="149.412773%" x2="0%" y2="0%" id="linearGradient-1">
            <stop stop-color="#E76124" offset="0%"></stop>
            <stop stop-color="#F19411" offset="100%"></stop>
        </linearGradient>
    </defs>
    <g id="Page-1" stroke="none" stroke-width="1" fill="none" fill-rule="evenodd">
        <g id="Rubric---Dashboard" transform="translate(-859.000000, -427.000000)">
            <g id="User---Icon" transform="translate(859.089433, 427.392306)">
                <circle id="Oval" fill="url(#linearGradient-1)" cx="36.4105668" cy="36.107694" r="36"></circle>
                <path d="M41.1045668,36.001694 C43.9180742,33.7881171 45.0195176,30.0346355 43.848269,26.6517487 C42.6770203,23.2688619 39.4904756,21 35.9105668,21 C32.3306581,21 29.1441134,23.2688619 27.9728647,26.6517487 C26.8016161,30.0346355 27.9030594,33.7881171 30.7165668,36.001694 C25.9245025,37.9215786 22.5778305,42.3228289 22.0085668,47.453694 C21.923515,48.2268927 22.4813682,48.9226422 23.2545668,49.007694 C24.0277655,49.0927459 24.723515,48.5348927 24.8085668,47.761694 C25.4450504,42.0955319 30.2367685,37.811934 35.9385668,37.811934 C41.6403652,37.811934 46.4320832,42.0955319 47.0685668,47.761694 C47.147408,48.4742029 47.7517224,49.0120428 48.4685668,49.007694 L48.6225668,49.007694 C49.3864643,48.9197992 49.9365006,48.2322539 49.8545668,47.467694 C49.2825513,42.321727 45.9170871,37.9116226 41.1045668,36.001694 L41.1045668,36.001694 Z M35.9105668,35.007694 C32.8177722,35.007694 30.3105668,32.5004886 30.3105668,29.407694 C30.3105668,26.3148994 32.8177722,23.807694 35.9105668,23.807694 C39.0033614,23.807694 41.5105668,26.3148994 41.5105668,29.407694 C41.5105668,30.8929064 40.9205685,32.3172883 39.8703648,33.367492 C38.8201611,34.4176957 37.3957792,35.007694 35.9105668,35.007694 Z" id="Shape" fill="#FFFFFF" fill-rule="nonzero"></path>
            </g>
        </g>
    </g>
</svg>